<svg xmlns="http://www.w3.org/2000/svg" version="1.1" xmlns:xlink="http://www.w3.org/1999/xlink" xmlns:svgjs="http://svgjs.com/svgjs" width="128px" height="128px"><svg xmlns="http://www.w3.org/2000/svg" version="1.1" width="128px" height="128px" style="shape-rendering:geometricPrecision; text-rendering:geometricPrecision; image-rendering:optimizeQuality; fill-rule:evenodd; clip-rule:evenodd" xmlns:xlink="http://www.w3.org/1999/xlink">
<g><path style="opacity:0.967" fill="#88f6aa" d="M 102.5,25.5 C 98.8333,25.5 95.1667,25.5 91.5,25.5C 75.3274,13.5635 58.3274,12.3968 40.5,22C 37.0015,24.3961 34.0015,27.2294 31.5,30.5C 28.5234,30.0984 25.8567,29.0984 23.5,27.5C 33.1091,13.6927 46.4424,6.69272 63.5,6.5C 79.5864,6.71076 92.5864,13.0441 102.5,25.5 Z"></path></g>
<g><path style="opacity:0.969" fill="#8af5aa" d="M 7.5,-0.5 C 9.5,-0.5 11.5,-0.5 13.5,-0.5C 17.1575,5.3156 20.1575,11.4823 22.5,18C 22.5607,19.7106 21.8941,21.044 20.5,22C 17.1667,22.3333 13.8333,22.6667 10.5,23C 11.2524,23.6708 11.5858,24.5041 11.5,25.5C 8.39147,25.2641 5.39147,25.5975 2.5,26.5C 1.73685,24.6316 0.736849,22.9649 -0.5,21.5C -0.5,19.5 -0.5,17.5 -0.5,15.5C 3.41549,14.7332 7.41549,14.2332 11.5,14C 7.88283,9.65358 6.5495,4.82025 7.5,-0.5 Z"></path></g>
<g><path style="opacity:0.973" fill="#8af5ab" d="M 113.5,-0.5 C 115.5,-0.5 117.5,-0.5 119.5,-0.5C 120.451,4.82025 119.117,9.65358 115.5,14C 119.585,14.2332 123.585,14.7332 127.5,15.5C 127.5,17.5 127.5,19.5 127.5,21.5C 126.263,22.9649 125.263,24.6316 124.5,26.5C 121.609,25.5975 118.609,25.2641 115.5,25.5C 115.414,24.5041 115.748,23.6708 116.5,23C 113.167,22.6667 109.833,22.3333 106.5,22C 105.106,21.044 104.439,19.7106 104.5,18C 106.843,11.4823 109.843,5.3156 113.5,-0.5 Z"></path></g>
<g><path style="opacity:0.95" fill="#75eda8" d="M 93.5,39.5 C 90.7131,40.4767 87.7131,40.81 84.5,40.5C 76.1775,30.6744 65.8441,27.841 53.5,32C 49.0496,34.6193 45.0496,37.7859 41.5,41.5C 38.8333,40.8333 36.1667,40.1667 33.5,39.5C 42.7193,24.3993 56.0526,18.8993 73.5,23C 82.7565,25.4489 89.4232,30.9489 93.5,39.5 Z"></path></g>
<g><path style="opacity:0.9" fill="#73ecaa" d="M 11.5,25.5 C 14.2175,28.6369 15.0508,32.3036 14,36.5C 11.4082,37.9817 9.07488,37.6483 7,35.5C 5.48672,32.4734 3.98672,29.4734 2.5,26.5C 5.39147,25.5975 8.39147,25.2641 11.5,25.5 Z"></path></g>
<g><path style="opacity:0.915" fill="#73ecaa" d="M 115.5,25.5 C 118.609,25.2641 121.609,25.5975 124.5,26.5C 123.013,29.4734 121.513,32.4734 120,35.5C 117.925,37.6483 115.592,37.9817 113,36.5C 111.949,32.3036 112.783,28.6369 115.5,25.5 Z"></path></g>
<g><path style="opacity:0.889" fill="#6eeaa8" d="M 91.5,25.5 C 95.1667,25.5 98.8333,25.5 102.5,25.5C 107.115,31.4005 110.115,38.0672 111.5,45.5C 108.615,45.1936 105.948,45.5269 103.5,46.5C 100.812,38.7963 96.8124,31.7963 91.5,25.5 Z"></path></g>
<g><path style="opacity:0.939" fill="#6feaa7" d="M 23.5,27.5 C 25.8567,29.0984 28.5234,30.0984 31.5,30.5C 29.246,34.0066 27.246,37.6733 25.5,41.5C 22.6085,40.5975 19.6085,40.2641 16.5,40.5C 18.0719,35.6852 20.4053,31.3518 23.5,27.5 Z"></path></g>
<g><path style="opacity:0.774" fill="#62e4a6" d="M 84.5,40.5 C 87.7131,40.81 90.7131,40.4767 93.5,39.5C 95.7403,43.0983 97.0736,47.0983 97.5,51.5C 74.9084,52.4889 52.2417,52.8222 29.5,52.5C 29.7689,47.7363 31.1022,43.403 33.5,39.5C 36.1667,40.1667 38.8333,40.8333 41.5,41.5C 40.0991,44.7036 39.0991,48.0369 38.5,51.5C 40.5273,51.6621 42.5273,51.4955 44.5,51C 50.0899,37.5051 59.7566,33.5051 73.5,39C 77.7035,42.0632 80.7035,46.0632 82.5,51C 84.4727,51.4955 86.4727,51.6621 88.5,51.5C 87.9561,47.534 86.6228,43.8674 84.5,40.5 Z M 59.5,45.5 C 65.0063,44.3777 69.3396,46.0444 72.5,50.5C 66.5,51.8333 60.5,51.8333 54.5,50.5C 55.8818,48.4514 57.5484,46.7847 59.5,45.5 Z"></path></g>
<g><path style="opacity:0.992" fill="#55dda4" d="M 97.5,51.5 C 97.5,56.5 97.5,61.5 97.5,66.5C 94.8333,66.5 92.1667,66.5 89.5,66.5C 89.5,64.1667 89.5,61.8333 89.5,59.5C 72.1667,59.5 54.8333,59.5 37.5,59.5C 37.5,61.8333 37.5,64.1667 37.5,66.5C 34.8333,66.5 32.1667,66.5 29.5,66.5C 29.5,61.8333 29.5,57.1667 29.5,52.5C 52.2417,52.8222 74.9084,52.4889 97.5,51.5 Z"></path></g>
<g><path style="opacity:0.942" fill="#58dfa5" d="M 111.5,45.5 C 112.341,47.3792 112.675,49.3792 112.5,51.5C 116.756,50.4545 119.422,51.9545 120.5,56C 120.241,57.2613 119.574,58.2613 118.5,59C 116.527,59.4955 114.527,59.6621 112.5,59.5C 109.833,60.8333 107.167,60.8333 104.5,59.5C 104.414,55.1434 104.08,50.81 103.5,46.5C 105.948,45.5269 108.615,45.1936 111.5,45.5 Z"></path></g>
<g><path style="opacity:0.937" fill="#55dda4" d="M 16.5,40.5 C 19.6085,40.2641 22.6085,40.5975 25.5,41.5C 22.9575,49.5991 21.9575,57.9324 22.5,66.5C 19.8333,66.5 17.1667,66.5 14.5,66.5C 14.5,64.1667 14.5,61.8333 14.5,59.5C 7.56073,60.4221 5.56073,57.9221 8.5,52C 10.4727,51.5045 12.4727,51.3379 14.5,51.5C 14.6911,47.7379 15.3578,44.0712 16.5,40.5 Z"></path></g>
<g><path style="opacity:0.96" fill="#41d4a2" d="M 14.5,66.5 C 17.1667,66.5 19.8333,66.5 22.5,66.5C 22.5,71.5 22.5,76.5 22.5,81.5C 19.8333,81.5 17.1667,81.5 14.5,81.5C 14.5,79.1667 14.5,76.8333 14.5,74.5C 7.56073,75.4221 5.56073,72.9221 8.5,67C 10.4727,66.5045 12.4727,66.3379 14.5,66.5 Z"></path></g>
<g><path style="opacity:0.978" fill="#41d3a2" d="M 82.5,81.5 C 77.0735,81.7825 71.7401,81.4491 66.5,80.5C 67.9599,78.5372 69.6266,76.7038 71.5,75C 66.1667,74.3333 60.8333,74.3333 55.5,75C 57.3734,76.7038 59.0401,78.5372 60.5,80.5C 55.2599,81.4491 49.9265,81.7825 44.5,81.5C 44.3343,77.1539 44.501,72.8206 45,68.5C 45.5,68 46,67.5 46.5,67C 57.8333,66.3333 69.1667,66.3333 80.5,67C 81,67.5 81.5,68 82,68.5C 82.499,72.8206 82.6657,77.1539 82.5,81.5 Z"></path></g>
<g><path style="opacity:0.96" fill="#43d4a2" d="M 104.5,59.5 C 107.167,60.8333 109.833,60.8333 112.5,59.5C 112.5,61.8333 112.5,64.1667 112.5,66.5C 116.756,65.4545 119.422,66.9545 120.5,71C 120.241,72.2613 119.574,73.2613 118.5,74C 116.527,74.4955 114.527,74.6621 112.5,74.5C 112.5,76.8333 112.5,79.1667 112.5,81.5C 109.833,81.5 107.167,81.5 104.5,81.5C 104.5,74.1667 104.5,66.8333 104.5,59.5 Z"></path></g>
<g><path style="opacity:0.937" fill="#2fcba1" d="M 14.5,81.5 C 17.1667,81.5 19.8333,81.5 22.5,81.5C 22.5,86.1667 22.5,90.8333 22.5,95.5C 19.8333,95.5 17.1667,95.5 14.5,95.5C 14.5,90.8333 14.5,86.1667 14.5,81.5 Z"></path></g>
<g><path style="opacity:0.937" fill="#35cea1" d="M 29.5,66.5 C 32.1667,66.5 34.8333,66.5 37.5,66.5C 37.5,76.1667 37.5,85.8333 37.5,95.5C 34.8333,95.5 32.1667,95.5 29.5,95.5C 29.5,85.8333 29.5,76.1667 29.5,66.5 Z"></path></g>
<g><path style="opacity:0.937" fill="#35cea1" d="M 89.5,66.5 C 92.1667,66.5 94.8333,66.5 97.5,66.5C 97.5,76.1667 97.5,85.8333 97.5,95.5C 94.8333,95.5 92.1667,95.5 89.5,95.5C 89.5,85.8333 89.5,76.1667 89.5,66.5 Z"></path></g>
<g><path style="opacity:0.937" fill="#2fcba1" d="M 104.5,81.5 C 107.167,81.5 109.833,81.5 112.5,81.5C 112.5,86.1667 112.5,90.8333 112.5,95.5C 109.833,95.5 107.167,95.5 104.5,95.5C 104.5,90.8333 104.5,86.1667 104.5,81.5 Z"></path></g>
<g><path style="opacity:0.956" fill="#2ecaa0" d="M 60.5,80.5 C 61.4822,81.1408 62.4822,81.8075 63.5,82.5C 64.5178,81.8075 65.5178,81.1408 66.5,80.5C 71.7401,81.4491 77.0735,81.7825 82.5,81.5C 82.5,86.1667 82.5,90.8333 82.5,95.5C 76.31,95.1771 70.31,95.5104 64.5,96.5C 64.1667,96.5 63.8333,96.5 63.5,96.5C 57.3554,95.5098 51.0221,95.1765 44.5,95.5C 44.5,90.8333 44.5,86.1667 44.5,81.5C 49.9265,81.7825 55.2599,81.4491 60.5,80.5 Z M 73.5,85.5 C 74.6341,87.9664 74.8007,90.633 74,93.5C 72.647,92.3147 71.4803,90.9814 70.5,89.5C 71.5244,88.1482 72.5244,86.8149 73.5,85.5 Z M 52.5,85.5 C 57.5175,87.8672 57.6842,90.5338 53,93.5C 52.5026,90.854 52.3359,88.1873 52.5,85.5 Z"></path></g>
<g><path style="opacity:0.977" fill="#12bc9d" d="M 14.5,95.5 C 17.1667,95.5 19.8333,95.5 22.5,95.5C 22.5,103.5 22.5,111.5 22.5,119.5C 24.8333,119.5 27.1667,119.5 29.5,119.5C 29.5,111.5 29.5,103.5 29.5,95.5C 32.1667,95.5 34.8333,95.5 37.5,95.5C 37.5,103.5 37.5,111.5 37.5,119.5C 54.8333,119.5 72.1667,119.5 89.5,119.5C 89.5,111.5 89.5,103.5 89.5,95.5C 92.1667,95.5 94.8333,95.5 97.5,95.5C 97.5,103.5 97.5,111.5 97.5,119.5C 99.8333,119.5 102.167,119.5 104.5,119.5C 104.5,111.5 104.5,103.5 104.5,95.5C 107.167,95.5 109.833,95.5 112.5,95.5C 112.5,103.5 112.5,111.5 112.5,119.5C 114.527,119.338 116.527,119.505 118.5,120C 119.252,120.671 119.586,121.504 119.5,122.5C 82.1667,122.5 44.8333,122.5 7.5,122.5C 7.41423,121.504 7.74756,120.671 8.5,120C 10.4727,119.505 12.4727,119.338 14.5,119.5C 14.5,111.5 14.5,103.5 14.5,95.5 Z M 63.5,96.5 C 63.8333,96.5 64.1667,96.5 64.5,96.5C 65.9599,98.4628 67.6266,100.296 69.5,102C 65.5,104 61.5,104 57.5,102C 59.3702,99.9604 61.3702,98.1271 63.5,96.5 Z"></path></g>
<g><path style="opacity:0.91" fill="#1ec39f" d="M 44.5,95.5 C 51.0221,95.1765 57.3554,95.5098 63.5,96.5C 61.3702,98.1271 59.3702,99.9604 57.5,102C 61.5,104 65.5,104 69.5,102C 67.6266,100.296 65.9599,98.4628 64.5,96.5C 70.31,95.5104 76.31,95.1771 82.5,95.5C 78.9916,109.927 69.9916,115.094 55.5,111C 49.2584,107.691 45.5917,102.524 44.5,95.5 Z M 63.5,96.5 C 63.8333,96.5 64.1667,96.5 64.5,96.5C 65.9599,98.4628 67.6266,100.296 69.5,102C 65.5,104 61.5,104 57.5,102C 59.3702,99.9604 61.3702,98.1271 63.5,96.5 Z"></path></g>
<g><path style="opacity:0.993" fill="#03b69c" d="M 7.5,122.5 C 44.8333,122.5 82.1667,122.5 119.5,122.5C 120.097,122.735 120.43,123.235 120.5,124C 120.022,125.303 119.355,126.469 118.5,127.5C 81.8333,127.5 45.1667,127.5 8.5,127.5C 7.64497,126.469 6.9783,125.303 6.5,124C 6.56993,123.235 6.90326,122.735 7.5,122.5 Z"></path></g>
</svg><style>@media (prefers-color-scheme: light) { :root { filter: none; } }
</style></svg>